    <svg
      width="18"
      height="22"
      viewBox="0 0 18 22"
      fill="none"
      xmlns="http://www.w3.org/2000/svg"
    >
      <path
        d="M9 20L8.43079 20.8222C8.77323 21.0593 9.22677 21.0593 9.56921 20.8222L9 20ZM9 20C9.56921 20.8222 9.56948 20.822 9.56977 20.8218L9.5705 20.8213L9.57243 20.82L9.57819 20.8159L9.59719 20.8026C9.61312 20.7913 9.63553 20.7754 9.66397 20.7548C9.72085 20.7138 9.80194 20.6543 9.90378 20.5773C10.1074 20.4235 10.3945 20.1991 10.7372 19.9109C11.4214 19.3357 12.3349 18.5004 13.251 17.4584C15.0579 15.4033 17 12.4024 17 8.92308C17 6.81816 16.1544 4.80171 14.6529 3.31672C13.1518 1.8321 11.1182 1 9 1C6.88181 1 4.84818 1.8321 3.34706 3.31672C1.84557 4.80171 1 6.81816 1 8.92308C1 12.4024 2.94208 15.4033 4.749 17.4584C5.66513 18.5004 6.57861 19.3357 7.26276 19.9109C7.60555 20.1991 7.89264 20.4235 8.09622 20.5773C8.19806 20.6543 8.27915 20.7138 8.33603 20.7548C8.36447 20.7754 8.38688 20.7913 8.40281 20.8026L8.42181 20.8159L8.42757 20.82L8.4295 20.8213L8.43023 20.8218C8.43052 20.822 8.43079 20.8222 9 20Z"
        fill="white"
        stroke="white"
        strokeWidth="2"
        strokeLinecap="round"
        strokeLinejoin="round"
      />
      <circle cx="9" cy="9" r="4" fill="#A259FF" />
    </svg>