<svg width="1273" height="310" viewBox="0 0 1273 310" fill="none" xmlns="http://www.w3.org/2000/svg">
<path d="M0 225.264C0 100.854 100.854 0 225.264 0H810.233C893.174 0 960.41 67.2361 960.41 150.176V159.577C960.41 242.517 893.174 309.753 810.233 309.753H0V225.264Z" fill="black"/>
<path d="M355.19 276.579C288.131 276.579 233.559 222.027 233.559 154.992C233.559 87.9574 288.131 33.1743 355.19 33.1743C422.25 33.1743 476.822 87.7267 476.822 154.761C476.822 221.795 422.25 276.579 355.19 276.579ZM355.19 62.2996C304.087 62.2996 262.463 103.907 262.463 154.992C262.463 206.077 304.087 247.684 355.19 247.684C406.294 247.684 447.917 206.077 447.917 154.992C447.917 103.907 406.294 62.2996 355.19 62.2996Z" fill="white"/>
<path fill-rule="evenodd" clip-rule="evenodd" d="M547.901 160.308H609.322C643.316 160.308 670.834 132.57 670.834 98.822C670.834 64.8425 643.316 37.3351 609.322 37.3351H500.409V160.308H500.639V272.418H529.775V182.922L653.723 272.417L670.834 249.07L547.901 160.308ZM529.775 131.183H609.322C627.128 131.183 641.698 116.621 641.698 98.822C641.698 81.0229 627.128 66.4603 609.322 66.4603H529.775V131.183Z" fill="white"/>
<path d="M797.784 272.418H694.416V37.3351H797.784C862.993 37.3351 916.178 90.0382 916.178 154.992C916.178 219.946 862.993 272.418 797.784 272.418ZM723.785 243.524H797.784C847.038 243.524 887.042 203.765 887.042 154.992C887.042 106.219 847.038 66.2294 797.784 66.2294H723.785V243.524Z" fill="white"/>
<path d="M171.355 165.625C164.649 158.921 157.944 151.987 151.006 145.052C152.163 143.897 153.319 142.741 154.475 141.585C166.962 128.64 178.755 115.002 188.698 99.9772C193.554 92.5805 198.179 84.7213 201.417 76.3996C202.341 73.8573 203.266 71.0832 203.729 68.3092C203.729 67.8472 203.729 67.6159 203.96 66.9227C203.266 66.9227 202.804 66.9227 202.11 67.1534C197.254 68.0784 192.861 69.9275 188.467 72.0078C178.755 76.6309 169.506 82.641 160.95 89.1132C150.313 96.9724 140.369 105.756 130.658 114.771C121.639 123.093 113.315 132.108 105.683 141.816C98.0528 151.756 91.1155 162.157 85.5658 173.253C80.941 182.499 77.0101 192.208 74.9288 202.378C73.7725 207.463 73.0787 212.78 73.3099 218.097C73.5412 221.333 74.0037 224.569 74.9288 227.805C77.2414 234.74 81.8661 239.131 88.8029 241.443C93.1969 242.83 97.8216 243.061 102.446 243.061C109.384 242.83 115.858 241.443 122.333 239.363C133.663 235.895 144.069 230.81 154.244 224.8C168.118 216.478 180.836 206.539 192.629 195.444C194.017 194.057 195.636 192.67 197.254 191.052C204.191 197.755 210.897 204.69 217.835 211.393C216.216 213.011 214.828 214.629 213.209 216.016C203.266 225.493 192.861 234.046 181.53 241.674C167.887 250.92 153.55 258.78 138.057 264.559C129.964 267.563 121.639 269.875 113.083 271.031C104.296 272.186 95.5089 272.418 86.9533 270.799C70.7666 267.563 58.5108 259.242 50.6487 244.679C47.4113 238.669 45.7927 232.428 44.8677 225.725C43.249 213.242 44.8677 201.223 48.105 189.434C51.5736 176.951 56.6607 165.163 62.9042 154.067C72.6162 136.5 84.6407 120.55 98.2841 105.987C111.927 91.4247 126.726 78.0179 142.913 66.2289C152.625 59.0635 162.568 52.3599 173.437 47.0433C180.143 43.8071 186.848 40.8022 194.248 39.1841C198.873 37.7972 203.96 37.3349 209.047 37.7972C222.228 38.9529 231.246 48.6614 232.865 59.988C233.559 65.7669 233.096 71.3145 231.709 76.6309C230.09 82.8723 227.778 89.1132 225.003 94.8921C218.99 107.374 211.36 118.701 203.035 129.796C194.711 140.66 185.693 151.062 176.211 160.771C174.593 162.389 172.974 164.007 171.355 165.625Z" fill="white"/>
<path d="M1116.21 310C1202.12 310 1271.77 240.604 1271.77 155C1271.77 69.3959 1202.12 0 1116.21 0C1030.29 0 960.648 69.3959 960.648 155C960.648 240.604 1030.29 310 1116.21 310Z" fill="#F4FFA0"/>
<path d="M1150.03 215.897C1143.07 215.897 1135.69 214.959 1127.98 213.058C1103.92 207.123 1079.92 193.147 1058.96 172.26L1072.93 158.333C1097.62 182.935 1126.91 196.169 1149.98 196.181C1160.75 196.181 1169.98 193.134 1176.44 186.688C1185.95 177.22 1188.55 165.51 1184.41 150.875C1179.93 135.034 1167.49 116.634 1148.43 97.6366L1162.42 83.6962C1184.17 105.374 1197.98 126.175 1203.46 145.513C1209.55 167.008 1205.04 186.067 1190.43 200.616C1180.31 210.718 1166.37 215.897 1150.03 215.897Z" fill="black"/>
<path d="M1059.05 172.37C1045.98 159.344 1035.41 144.989 1029.44 132.134C1020.02 111.821 1024.5 101.121 1029.93 95.7235C1035.34 90.3251 1046.08 85.8534 1066.47 95.248C1079.36 101.183 1093.66 111.626 1106.73 124.652L1092.76 138.592C1082.12 127.99 1070.59 119.315 1060.26 114.148C1050.34 109.176 1045.2 109.323 1043.95 109.713C1043.56 110.955 1043.42 116.073 1048.4 125.968C1053.59 136.252 1062.4 147.853 1073.04 158.442L1059.05 172.37Z" fill="black"/>
<path d="M1094.9 238.951C1089.69 238.951 1084.19 238.281 1078.47 236.941C1060.04 232.603 1041.15 221.502 1025.3 205.71L1039.29 191.769C1052.58 205.015 1068.11 214.252 1083.02 217.761C1100.85 221.965 1109.8 216.311 1113.57 212.57C1117.32 208.829 1122.99 199.897 1118.78 182.131C1115.25 167.276 1106.04 151.837 1092.76 138.592L1106.69 124.615C1122.55 140.419 1133.67 159.234 1138.02 177.598C1142.78 197.655 1139.06 215.031 1127.54 226.498C1119.3 234.711 1108.02 238.951 1094.9 238.951Z" fill="black"/>
<path d="M1158.44 144.404H1138.67V75.4828H1207.84V95.1867H1158.44V144.404Z" fill="black"/>
</svg>
